<?xml version="1.0" standalone="no"?>
<!DOCTYPE svg PUBLIC "-//W3C//DTD SVG 20010904//EN"
 "http://www.w3.org/TR/2001/REC-SVG-20010904/DTD/svg10.dtd">
<svg version="1.0" xmlns="http://www.w3.org/2000/svg"
 width="225.000000pt" height="225.000000pt" viewBox="0 0 225.000000 225.000000"
 preserveAspectRatio="xMidYMid meet">

<g transform="translate(0.000000,225.000000) scale(0.100000,-0.100000)"
fill="#000000" stroke="none">
<path d="M1028 2089 c-374 -32 -700 -294 -822 -659 -129 -386 -4 -808 313
-1062 385 -309 937 -280 1287 67 355 351 388 907 76 1296 -155 193 -408 336
-631 354 -36 3 -82 7 -101 9 -19 2 -74 -1 -122 -5z m193 -365 c78 -23 152
-101 175 -184 l17 -60 58 0 c58 0 58 0 63 -32 13 -76 76 -811 70 -819 -6 -11
-931 -12 -937 -1 -3 4 3 95 14 202 10 107 27 292 39 410 11 118 20 221 20 228
0 8 20 12 65 12 64 0 65 0 65 28 1 65 66 159 134 194 82 42 132 47 217 22z"/>
<path d="M1085 1701 c-92 -24 -153 -87 -174 -180 l-9 -41 234 0 c260 0 245 -5
219 72 -36 105 -166 176 -270 149z"/>
<path d="M867 1423 c-13 -12 -7 -44 9 -50 23 -9 48 25 33 44 -12 14 -32 17
-42 6z"/>
<path d="M1364 1416 c-10 -26 4 -48 28 -44 17 2 23 10 23 28 0 18 -6 26 -23
28 -13 2 -25 -3 -28 -12z"/>
</g>
</svg>
